M48
;Layer_Color=9474304
;FILE_FORMAT=2:5
INCH
;TYPE=PLATED
T1F00S00C0.03543
T2F00S00C0.03937
T3F00S00C0.04331
;TYPE=NON_PLATED
%
T01
X0224500Y0270500
X0234500
X0244500
T02
X0234500Y0438000
Y0448000
X0247000
Y0438000
X0259500
Y0448000
X0272000
Y0438000
T03
X0202429Y0333953
Y0343953
Y0353953
Y0363953
Y0373953
Y0383953
Y0393953
Y0403953
X0212429Y0463953
X0222429
X0282429
X0292429
X0302429
X0312429
X0322429Y0413953
Y0403953
Y0393953
Y0383953
Y0373953
Y0363953
Y0353953
Y0343953
M30
