G04 Layer_Color=8388736*
%FSLAX25Y25*%
%MOIN*%
G70*
G01*
G75*
%ADD20R,0.04737X0.04737*%
%ADD21R,0.04737X0.09461*%
%ADD22C,0.07493*%
%ADD23C,0.08800*%
%ADD24R,0.06706X0.06706*%
%ADD25C,0.06706*%
%ADD26R,0.07638X0.07638*%
G36*
X231394Y332606D02*
X224606D01*
Y337394D01*
X231394D01*
Y332606D01*
D02*
G37*
G36*
X301394D02*
X294606D01*
Y337394D01*
X301394D01*
Y332606D01*
D02*
G37*
G36*
Y327606D02*
X294606D01*
Y332394D01*
X301394D01*
Y327606D01*
D02*
G37*
G36*
Y322606D02*
X294606D01*
Y327394D01*
X301394D01*
Y322606D01*
D02*
G37*
G36*
X231394Y327606D02*
X224606D01*
Y332394D01*
X231394D01*
Y327606D01*
D02*
G37*
G36*
Y337606D02*
X224606D01*
Y342394D01*
X231394D01*
Y337606D01*
D02*
G37*
G36*
Y347606D02*
X224606D01*
Y352394D01*
X231394D01*
Y347606D01*
D02*
G37*
G36*
X301394D02*
X294606D01*
Y352394D01*
X301394D01*
Y347606D01*
D02*
G37*
G36*
Y342606D02*
X294606D01*
Y347394D01*
X301394D01*
Y342606D01*
D02*
G37*
G36*
Y337606D02*
X294606D01*
Y342394D01*
X301394D01*
Y337606D01*
D02*
G37*
G36*
X231394Y342606D02*
X224606D01*
Y347394D01*
X231394D01*
Y342606D01*
D02*
G37*
G36*
Y322606D02*
X224606D01*
Y327394D01*
X231394D01*
Y322606D01*
D02*
G37*
G36*
X265394Y306606D02*
X260606D01*
Y313394D01*
X265394D01*
Y306606D01*
D02*
G37*
G36*
X270394D02*
X265606D01*
Y313394D01*
X270394D01*
Y306606D01*
D02*
G37*
G36*
X260394D02*
X255606D01*
Y313394D01*
X260394D01*
Y306606D01*
D02*
G37*
G36*
X250394D02*
X245606D01*
Y313394D01*
X250394D01*
Y306606D01*
D02*
G37*
G36*
X255394D02*
X250606D01*
Y313394D01*
X255394D01*
Y306606D01*
D02*
G37*
G36*
X275394D02*
X270606D01*
Y313394D01*
X275394D01*
Y306606D01*
D02*
G37*
G36*
X231394Y317606D02*
X224606D01*
Y322394D01*
X231394D01*
Y317606D01*
D02*
G37*
G36*
X301394D02*
X294606D01*
Y322394D01*
X301394D01*
Y317606D01*
D02*
G37*
G36*
Y312606D02*
X294606D01*
Y317394D01*
X301394D01*
Y312606D01*
D02*
G37*
G36*
X280394Y306606D02*
X275606D01*
Y313394D01*
X280394D01*
Y306606D01*
D02*
G37*
G36*
X231394Y312606D02*
X224606D01*
Y317394D01*
X231394D01*
Y312606D01*
D02*
G37*
G36*
Y352606D02*
X224606D01*
Y357394D01*
X231394D01*
Y352606D01*
D02*
G37*
G36*
Y392606D02*
X224606D01*
Y397394D01*
X231394D01*
Y392606D01*
D02*
G37*
G36*
X301394D02*
X294606D01*
Y397394D01*
X301394D01*
Y392606D01*
D02*
G37*
G36*
Y387606D02*
X294606D01*
Y392394D01*
X301394D01*
Y387606D01*
D02*
G37*
G36*
Y382606D02*
X294606D01*
Y387394D01*
X301394D01*
Y382606D01*
D02*
G37*
G36*
X231394Y387606D02*
X224606D01*
Y392394D01*
X231394D01*
Y387606D01*
D02*
G37*
G36*
Y397606D02*
X224606D01*
Y402394D01*
X231394D01*
Y397606D01*
D02*
G37*
G36*
Y407606D02*
X224606D01*
Y412394D01*
X231394D01*
Y407606D01*
D02*
G37*
G36*
X301394D02*
X294606D01*
Y412394D01*
X301394D01*
Y407606D01*
D02*
G37*
G36*
Y402606D02*
X294606D01*
Y407394D01*
X301394D01*
Y402606D01*
D02*
G37*
G36*
Y397606D02*
X294606D01*
Y402394D01*
X301394D01*
Y397606D01*
D02*
G37*
G36*
X231394Y402606D02*
X224606D01*
Y407394D01*
X231394D01*
Y402606D01*
D02*
G37*
G36*
Y382606D02*
X224606D01*
Y387394D01*
X231394D01*
Y382606D01*
D02*
G37*
G36*
Y362606D02*
X224606D01*
Y367394D01*
X231394D01*
Y362606D01*
D02*
G37*
G36*
X301394D02*
X294606D01*
Y367394D01*
X301394D01*
Y362606D01*
D02*
G37*
G36*
Y357606D02*
X294606D01*
Y362394D01*
X301394D01*
Y357606D01*
D02*
G37*
G36*
Y352606D02*
X294606D01*
Y357394D01*
X301394D01*
Y352606D01*
D02*
G37*
G36*
X231394Y357606D02*
X224606D01*
Y362394D01*
X231394D01*
Y357606D01*
D02*
G37*
G36*
Y367606D02*
X224606D01*
Y372394D01*
X231394D01*
Y367606D01*
D02*
G37*
G36*
Y377606D02*
X224606D01*
Y382394D01*
X231394D01*
Y377606D01*
D02*
G37*
G36*
X301394D02*
X294606D01*
Y382394D01*
X301394D01*
Y377606D01*
D02*
G37*
G36*
Y372606D02*
X294606D01*
Y377394D01*
X301394D01*
Y372606D01*
D02*
G37*
G36*
Y367606D02*
X294606D01*
Y372394D01*
X301394D01*
Y367606D01*
D02*
G37*
G36*
X231394Y372606D02*
X224606D01*
Y377394D01*
X231394D01*
Y372606D01*
D02*
G37*
D20*
X258000Y293496D02*
D03*
D21*
X264000Y287000D02*
D03*
X252000D02*
D03*
D22*
X202429Y333953D02*
D03*
Y343953D02*
D03*
Y353953D02*
D03*
Y363953D02*
D03*
Y373953D02*
D03*
Y383953D02*
D03*
Y393953D02*
D03*
Y403953D02*
D03*
X302429Y463953D02*
D03*
X282429D02*
D03*
X292429D02*
D03*
X312429D02*
D03*
X222429D02*
D03*
X322429Y413953D02*
D03*
Y403953D02*
D03*
Y393953D02*
D03*
Y383953D02*
D03*
Y373953D02*
D03*
Y363953D02*
D03*
Y353953D02*
D03*
Y343953D02*
D03*
D23*
X259500Y438000D02*
D03*
Y448000D02*
D03*
X272000Y438000D02*
D03*
Y448000D02*
D03*
X247000Y438000D02*
D03*
Y448000D02*
D03*
X234500Y438000D02*
D03*
Y448000D02*
D03*
D24*
X224500Y270500D02*
D03*
D25*
X234500D02*
D03*
X244500D02*
D03*
D26*
X212429Y463953D02*
D03*
M02*
