M48
;Layer_Color=9474304
;FILE_FORMAT=2:5
INCH
T4F00S00C0.00100
%
G90
G05
T04
G00X0315810Y0258563
M15
G01X0318295Y0261047
G01X0318299Y0261043
G01X0318365Y0261039
G01X0318385Y0261078
G01X0318385Y0328740
G01X0330284Y0340596
G01X0330303Y0340596
G01X0330353Y0340646
G01X0330353Y0420697
G01X0330338Y0420732
G01X0329550Y0421521
G01X0329550Y0485500
G01X0329535Y0485535
G01X0327535Y0487535
G01X0327500Y0487550
G01X0209500Y0487550
G01X0209465Y0487535
G01X0206454Y0484525
G01X0206440Y0484490
G01X0206440Y0419648
G01X0194520Y0407728
G01X0194505Y0407693
G01X0194505Y0330404
G01X0194520Y0330369
G01X0206474Y0318379
G01X0206474Y0262103
G01X0206488Y0262067
G01X0209992Y0258563
G01X0210027Y0258548
G01X0315775Y0258548
G01X0315810Y0258563
M16
M17
M30
