G04 Layer_Color=255*
%FSLAX25Y25*%
%MOIN*%
G70*
G01*
G75*
%ADD10R,0.04000X0.06000*%
%ADD11R,0.06000X0.04000*%
%ADD12R,0.03937X0.08661*%
%ADD13R,0.03937X0.03937*%
%ADD15C,0.06693*%
%ADD16R,0.06693X0.06693*%
%ADD17C,0.05906*%
%ADD18R,0.05906X0.05906*%
%ADD19C,0.08000*%
D10*
X248000Y310000D02*
D03*
X253000D02*
D03*
X258000D02*
D03*
X263000D02*
D03*
X268000D02*
D03*
X273000D02*
D03*
X278000D02*
D03*
D11*
X298000Y315000D02*
D03*
Y320000D02*
D03*
Y325000D02*
D03*
Y330000D02*
D03*
Y335000D02*
D03*
Y340000D02*
D03*
Y345000D02*
D03*
Y350000D02*
D03*
Y355000D02*
D03*
Y360000D02*
D03*
Y365000D02*
D03*
Y370000D02*
D03*
Y375000D02*
D03*
Y380000D02*
D03*
Y385000D02*
D03*
Y390000D02*
D03*
Y395000D02*
D03*
Y400000D02*
D03*
Y405000D02*
D03*
Y410000D02*
D03*
X228000D02*
D03*
Y405000D02*
D03*
Y400000D02*
D03*
Y395000D02*
D03*
Y390000D02*
D03*
Y385000D02*
D03*
Y380000D02*
D03*
Y375000D02*
D03*
Y370000D02*
D03*
Y365000D02*
D03*
Y360000D02*
D03*
Y355000D02*
D03*
Y350000D02*
D03*
Y345000D02*
D03*
Y340000D02*
D03*
Y335000D02*
D03*
Y330000D02*
D03*
Y325000D02*
D03*
Y320000D02*
D03*
Y315000D02*
D03*
D12*
X252000Y287000D02*
D03*
X264000D02*
D03*
D13*
X258000Y293496D02*
D03*
D15*
X322429Y343953D02*
D03*
Y353953D02*
D03*
Y363953D02*
D03*
Y373953D02*
D03*
Y383953D02*
D03*
Y393953D02*
D03*
Y403953D02*
D03*
Y413953D02*
D03*
X222429Y463953D02*
D03*
X312429D02*
D03*
X292429D02*
D03*
X282429D02*
D03*
X302429D02*
D03*
X202429Y403953D02*
D03*
Y393953D02*
D03*
Y383953D02*
D03*
Y373953D02*
D03*
Y363953D02*
D03*
Y353953D02*
D03*
Y343953D02*
D03*
Y333953D02*
D03*
D16*
X212429Y463953D02*
D03*
D17*
X244500Y270500D02*
D03*
X234500D02*
D03*
D18*
X224500D02*
D03*
D19*
X234500Y448000D02*
D03*
Y438000D02*
D03*
X247000Y448000D02*
D03*
Y438000D02*
D03*
X272000Y448000D02*
D03*
Y438000D02*
D03*
X259500Y448000D02*
D03*
Y438000D02*
D03*
M02*
